<?xml version="1.0" standalone="no"?>
<!DOCTYPE svg PUBLIC "-//W3C//DTD SVG 20010904//EN"
 "http://www.w3.org/TR/2001/REC-SVG-20010904/DTD/svg10.dtd">
<svg version="1.0" xmlns="http://www.w3.org/2000/svg"
 width="1024.000000pt" height="1024.000000pt" viewBox="0 0 1024.000000 1024.000000"
 preserveAspectRatio="xMidYMid meet">

<g transform="translate(0.000000,1024.000000) scale(0.100000,-0.100000)"
fill="#000000" stroke="none">
<path d="M3274 7328 c-5 -8 -7 -965 -4 -2213 l5 -2200 28 -13 c17 -8 40 -11
55 -7 17 4 250 229 652 628 344 342 680 676 747 741 l122 120 740 -740 c408
-406 751 -742 763 -746 37 -10 854 -9 882 2 33 12 44 52 23 83 -9 12 -441 449
-960 971 l-943 949 400 395 c221 218 551 548 735 734 l334 339 212 -211 c167
-166 217 -210 237 -210 61 0 58 -31 58 688 0 579 -2 660 -16 680 l-15 22 -657
0 c-705 0 -704 0 -710 -50 -2 -20 30 -58 172 -205 l174 -180 -190 -195 c-105
-107 -624 -627 -1154 -1155 l-964 -960 0 1357 c0 1220 -2 1358 -16 1372 -13
14 -60 16 -358 16 -264 0 -346 -3 -352 -12z"/>
</g>
</svg>
